<?xml version="1.0" encoding="utf-8"?>
<!-- Generator: Adobe Illustrator 22.0.0, SVG Export Plug-In . SVG Version: 6.00 Build 0)  -->
<svg version="1.0" id="Слой_1" xmlns="http://www.w3.org/2000/svg" xmlns:xlink="http://www.w3.org/1999/xlink" x="0px" y="0px"
	 width="40px" height="40px" viewBox="0 0 40 40" style="enable-background:new 0 0 40 40;" xml:space="preserve">
<path id="github-_x5B__x23_142_x5D_" d="M20,0c11,0,20,9.2,20,20.5c0,9.1-5.7,16.7-13.7,19.5c-1,0.2-1.4-0.4-1.4-1
	c0-0.7,0-2.9,0-5.6c0-1.9-0.6-3.2-1.4-3.8c4.5-0.5,9.1-2.2,9.1-10.1c0-2.2-0.8-4.1-2.1-5.5c0.2-0.5,0.9-2.6-0.2-5.4
	c0,0-1.7-0.5-5.5,2.1c-1.6-0.5-3.3-0.7-5-0.7c-1.7,0-3.4,0.2-5,0.7C11.2,8,9.5,8.5,9.5,8.5c-1.1,2.8-0.4,4.9-0.2,5.4
	c-1.3,1.4-2.1,3.3-2.1,5.5c0,7.9,4.7,9.6,9.1,10.1c-0.6,0.5-1.1,1.4-1.3,2.7c-1.1,0.5-4,1.4-5.8-1.7c0,0-1.1-2-3.1-2.1
	c0,0-1.9,0-0.1,1.2c0,0,1.3,0.6,2.2,3c0,0,1.2,3.7,6.7,2.4c0,1.7,0,3.3,0,3.8c0,0.5-0.4,1.2-1.4,1C5.7,37.3,0,29.6,0,20.5
	C0,9.2,9,0,20,0"/>
</svg>
